<svg id="Слой_1" data-name="Слой 1" xmlns="http://www.w3.org/2000/svg" viewBox="0 0 60.15 47"><defs><style>.cls-1{fill:#96c93d}</style></defs><path class="cls-1" d="M659.75 218.47H642v-.11l-4.91-31.74h27.57v.15l-2.15 13.89h-.06a8 8 0 0 0-4.47 7.13 7.84 7.84 0 0 0 2.48 5.75v.11zm-17.51-.25h17.29l.7-4.52a8.11 8.11 0 0 1-2.51-5.89 8.24 8.24 0 0 1 4.55-7.32l2.11-13.62h-27zM667 211.6h-1.1a3.79 3.79 0 1 1 0-7.57h.42v.11zm-1.05-7.32a3.54 3.54 0 1 0 0 7.07h.77l-.59-7.07z" transform="translate(-631.98 -176.44)"/><path class="cls-1" d="M665.6 192.29h-.47v-.13l.94-6.08a.63.63 0 0 0-.15-.53.65.65 0 0 0-.5-.22h-6.11v-.14a6 6 0 0 1 4-5.11 6.2 6.2 0 0 1 6.73 1.76 6.43 6.43 0 0 1 .82 7.08v.1a5.84 5.84 0 0 1-5.26 3.27zm-.18-.25h.18a5.59 5.59 0 0 0 5-3.21v-.07a6.2 6.2 0 0 0-.8-6.77 5.93 5.93 0 0 0-6.46-1.69 5.76 5.76 0 0 0-3.82 4.76h5.83a.87.87 0 0 1 .69.31.9.9 0 0 1 .21.73zm-5.77 29.83h-17.53v-2.08h17.53zm-17.28-.25h17V220h-17zm40.97.22h-9a5.85 5.85 0 0 1-5.73-5.27l-.13-1.49a.6.6 0 0 0-.6-.55h-2a6.74 6.74 0 0 1-3.94-1.28 7.09 7.09 0 0 1-1.41-1.38 6.73 6.73 0 0 1 3.24-10.43 6.85 6.85 0 0 1 2.11-.34h.73a.64.64 0 0 0 .45-.19.6.6 0 0 0 .15-.46l-.19-2.27h23.57v.13l-1.52 18.26a5.87 5.87 0 0 1-5.73 5.27zm-17.44-20.49a6.39 6.39 0 0 0-2 .33 6.33 6.33 0 0 0-1.7.86 6.49 6.49 0 0 0-2.73 5.27 6.48 6.48 0 0 0 6.46 6.47h2a.85.85 0 0 1 .85.78l.13 1.48a5.6 5.6 0 0 0 5.48 5.05h9a5.62 5.62 0 0 0 5.49-5.05l1.51-18.11h-23l.16 2a.89.89 0 0 1-.22.66.87.87 0 0 1-.63.27zm15.76 18.3a.86.86 0 1 1 .85-.86.86.86 0 0 1-.85.86zm0-1.47a.61.61 0 0 0-.61.61.61.61 0 1 0 .61-.61zm2.92-1.46a.86.86 0 1 1 .86-.86.85.85 0 0 1-.86.86zm0-1.46a.61.61 0 1 0 .61.6.6.6 0 0 0-.61-.6zm-17-2.2h-1.68a5.25 5.25 0 1 1 0-10.49h1a.86.86 0 0 1 .86.78l.73 8.78a.89.89 0 0 1-.22.66.9.9 0 0 1-.66.27zm-1.71-10.24a5 5 0 1 0 0 10h1.71a.61.61 0 0 0 .44-.19.63.63 0 0 0 .16-.47l-.73-8.78a.61.61 0 0 0-.61-.55z" transform="translate(-631.98 -176.44)"/><path class="cls-1" d="M684.58 216.6a.74.74 0 1 0-.73-.74.74.74 0 0 0 .73.74z" transform="translate(-631.98 -176.44)"/><path class="cls-1" d="M684.58 216.72a.86.86 0 1 1 .86-.86.85.85 0 0 1-.86.86zm0-1.46a.61.61 0 1 0 .61.6.6.6 0 0 0-.61-.6zm-2.92 4.26a.73.73 0 1 0 0-1.46.73.73 0 1 0 0 1.46z" transform="translate(-631.98 -176.44)"/><path class="cls-1" d="M681.66 219.65a.86.86 0 1 1 .85-.86.86.86 0 0 1-.85.86zm0-1.47a.61.61 0 0 0-.61.61.61.61 0 1 0 .61-.61zm-15.76-15.49a5.13 5.13 0 1 0 0 10.25h1.71a.74.74 0 0 0 .72-.8l-.73-8.78a.73.73 0 0 0-.73-.67zm0 8.78a3.66 3.66 0 1 1 0-7.31h.3l.61 7.31z" transform="translate(-631.98 -176.44)"/><path class="cls-1" d="M667.61 213.06h-1.71a5.25 5.25 0 1 1 0-10.49h1a.86.86 0 0 1 .86.78l.73 8.78a.89.89 0 0 1-.22.66.9.9 0 0 1-.66.27zm-1.71-10.24a5 5 0 1 0 0 10h1.71a.61.61 0 0 0 .44-.19.63.63 0 0 0 .16-.47l-.73-8.78a.61.61 0 0 0-.61-.55zm1.1 8.78h-1.1a3.79 3.79 0 1 1 0-7.57h.42v.11zm-1.05-7.32a3.54 3.54 0 1 0 0 7.07h.77l-.59-7.07z" transform="translate(-631.98 -176.44)"/><path class="cls-1" d="M659.64 218.34h-17.51l-4.88-31.59h27.27l-2.13 13.82a8.08 8.08 0 0 1 1.69-.6l1-6.26h.58a7.26 7.26 0 0 0 6.56-4.15 7.89 7.89 0 0 0-1-8.7 7.6 7.6 0 0 0-8.28-2.18 7.46 7.46 0 0 0-5 6.48h-14l-3.57-8.62h-8.27v1.57h7.18l2.91 7.05h-5.85a.8.8 0 0 0-.6.27.78.78 0 0 0-.18.63l5.13 33.11v3.34a.78.78 0 0 0 .78.78h18.85a.78.78 0 0 0 .78-.78v-3.34l.69-4.46a8.26 8.26 0 0 1-1.43-1.08zm3.75-38.16a6.07 6.07 0 0 1 6.59 1.73 6.3 6.3 0 0 1 .8 7 5.73 5.73 0 0 1-5.49 3.28l.94-6.08a.83.83 0 0 0-.18-.63.77.77 0 0 0-.6-.27h-6a5.89 5.89 0 0 1 3.94-5.03zm-3.87 41.56h-17.27v-1.83h17.27z" transform="translate(-631.98 -176.44)"/><path class="cls-1" d="M660.32 223.44h-18.85a.91.91 0 0 1-.91-.91v-3.34l-5.12-33.09a.91.91 0 0 1 .2-.73 1 1 0 0 1 .7-.31H642l-2.82-6.8H632v-1.82h8.43v.07l3.53 8.55h13.81a7.56 7.56 0 0 1 5.06-6.48 7.72 7.72 0 0 1 8.42 2.22 8 8 0 0 1 1 8.84 7.43 7.43 0 0 1-6.67 4.22h-.47l-1 6.24h-.09a7.77 7.77 0 0 0-1.66.58l-.22.11v-.24l2.12-13.68h-27l4.85 31.35h17.29l.75-4.82.17.16a7.71 7.71 0 0 0 1.41 1.07h.07v.08l-.69 4.46v3.32a.91.91 0 0 1-.79.95zm-24-38.13a.7.7 0 0 0-.51.22.66.66 0 0 0-.14.53l5.12 33.11v3.36a.67.67 0 0 0 .66.66h18.85a.68.68 0 0 0 .66-.66v-3.34l.68-4.39a8.08 8.08 0 0 1-1.21-.9l-.7 4.57H642v-.11l-4.91-31.74h27.57v.15l-2.11 13.59a8.61 8.61 0 0 1 1.43-.49l1-6.29h.68a7.17 7.17 0 0 0 6.45-4.08 7.77 7.77 0 0 0-1-8.57 7.51 7.51 0 0 0-8.15-2.15 7.33 7.33 0 0 0-4.9 6.38v.12H643.8v-.08l-3.53-8.54h-8V178h7.13v.07l3 7.23zm23.31 36.56h-17.51v-2.08h17.53zm-17.28-.25h17V220h-17zm23.23-29.33h-.47v-.13l.94-6.08a.63.63 0 0 0-.15-.53.65.65 0 0 0-.5-.22h-6.11v-.14a6 6 0 0 1 4-5.11 6.2 6.2 0 0 1 6.73 1.76 6.43 6.43 0 0 1 .82 7.08v.1a5.84 5.84 0 0 1-5.24 3.27zm-.18-.25h.18a5.59 5.59 0 0 0 5-3.21v-.07a6.2 6.2 0 0 0-.8-6.77 5.93 5.93 0 0 0-6.46-1.69 5.76 5.76 0 0 0-3.82 4.76h5.83a.9.9 0 0 1 .7.31.93.93 0 0 1 .2.73z" transform="translate(-631.98 -176.44)"/><path class="cls-1" d="M691.81 197.07a.74.74 0 0 0-.54-.23h-24.88a.72.72 0 0 0-.73.79l.17 2.13a8.38 8.38 0 0 0-1.75.21 8 8 0 0 0-3.72 13.68 8.26 8.26 0 0 0 1.43 1.08 8 8 0 0 0 4.11 1.13h1.28l.06.82a7.23 7.23 0 0 0 7.07 6.5h9a7.23 7.23 0 0 0 7.07-6.5l1.62-19.05a.81.81 0 0 0-.19-.56zM689 216.56a5.74 5.74 0 0 1-5.61 5.16h-9a5.74 5.74 0 0 1-5.61-5.16l-.12-1.49a.73.73 0 0 0-.73-.67h-2a6.58 6.58 0 0 1-3.8-12 6.49 6.49 0 0 1 3.8-1.21h.73a.75.75 0 0 0 .54-.24.7.7 0 0 0 .19-.55l-.18-2.14h23.29z" transform="translate(-631.98 -176.44)"/><path class="cls-1" d="M683.34 223.31h-9a7.35 7.35 0 0 1-7.19-6.62l-.06-.7h-1.19a8.15 8.15 0 0 1-4.17-1.15 7.7 7.7 0 0 1-1.45-1.1 8.09 8.09 0 0 1-2.56-5.93 8.23 8.23 0 0 1 4.61-7.35 8.36 8.36 0 0 1 1.72-.61 9.2 9.2 0 0 1 1.65-.21l-.17-2a.82.82 0 0 1 .23-.65.84.84 0 0 1 .63-.28h24.88a.84.84 0 0 1 .63.28.85.85 0 0 1 .22.65l-1.59 19.05a7.35 7.35 0 0 1-7.19 6.62zm-17-26.35a.59.59 0 0 0-.45.2.63.63 0 0 0-.16.46l.19 2.27h-.14a7.31 7.31 0 0 0-1.73.21 7.77 7.77 0 0 0-1.66.58 8 8 0 0 0-4.47 7.13 7.84 7.84 0 0 0 2.48 5.75 7.71 7.71 0 0 0 1.41 1.07 7.94 7.94 0 0 0 4 1.11h1.39l.08.93a7.1 7.1 0 0 0 6.94 6.39h9a7.09 7.09 0 0 0 6.94-6.39l1.59-19a.56.56 0 0 0-.16-.46.57.57 0 0 0-.44-.2zm17 24.88h-9a5.85 5.85 0 0 1-5.73-5.27l-.13-1.49a.6.6 0 0 0-.6-.55h-2a6.74 6.74 0 0 1-3.94-1.28 7.09 7.09 0 0 1-1.41-1.38 6.73 6.73 0 0 1 3.24-10.43 6.85 6.85 0 0 1 2.11-.34h.73a.64.64 0 0 0 .45-.19.6.6 0 0 0 .15-.46l-.19-2.27h23.57v.13l-1.52 18.26a5.87 5.87 0 0 1-5.73 5.27zm-17.44-20.49a6.39 6.39 0 0 0-2 .33 6.33 6.33 0 0 0-1.7.86 6.49 6.49 0 0 0-2.73 5.27 6.48 6.48 0 0 0 6.46 6.47h2a.85.85 0 0 1 .85.78l.13 1.48a5.6 5.6 0 0 0 5.48 5.05h9a5.62 5.62 0 0 0 5.49-5.05l1.51-18.11h-23l.16 2a.89.89 0 0 1-.22.66.87.87 0 0 1-.63.27zm9.02-9.35a5.58 5.58 0 0 0 .82 3 .73.73 0 0 0 1.29-.7 4.56 4.56 0 0 1 0-4.66 5.65 5.65 0 0 0 .82-3 5.55 5.55 0 0 0-.82-3 .71.71 0 0 0-.64-.38.73.73 0 0 0-.74.73.68.68 0 0 0 .1.35 4.2 4.2 0 0 1 .64 2.33 4.09 4.09 0 0 1-.65 2.33 5.65 5.65 0 0 0-.82 3z" transform="translate(-631.98 -176.44)"/><path class="cls-1" d="M676.39 195.5a.86.86 0 0 1-.76-.45 6.19 6.19 0 0 1 0-6.19 4 4 0 0 0 .63-2.27 4.12 4.12 0 0 0-.62-2.27.84.84 0 0 1-.11-.41.86.86 0 0 1 .86-.86.85.85 0 0 1 .75.45 6.1 6.1 0 0 1 0 6.18 4.42 4.42 0 0 0 0 4.55.85.85 0 0 1-.34 1.16.87.87 0 0 1-.41.11zm0-12.2a.61.61 0 0 0-.61.61.73.73 0 0 0 .07.29 4.66 4.66 0 0 1 0 4.78 5.58 5.58 0 0 0-.8 3 5.51 5.51 0 0 0 .8 3 .62.62 0 0 0 .83.24.59.59 0 0 0 .29-.36.62.62 0 0 0-.05-.46 4.31 4.31 0 0 1-.66-2.39 4.26 4.26 0 0 1 .66-2.39 5.48 5.48 0 0 0 .81-3 5.41 5.41 0 0 0-.81-3 .59.59 0 0 0-.53-.32zm3.41 8.7a5.58 5.58 0 0 0 .82 3 .74.74 0 0 0 .65.38.79.79 0 0 0 .35-.09.73.73 0 0 0 .29-1 4.56 4.56 0 0 1 0-4.66 6 6 0 0 0 0-6.07.74.74 0 0 0-1.38.35.79.79 0 0 0 .09.35 4.5 4.5 0 0 1 0 4.66 5.65 5.65 0 0 0-.82 3.08z" transform="translate(-631.98 -176.44)"/><path class="cls-1" d="M681.27 195.5a.86.86 0 0 1-.76-.45 6.17 6.17 0 0 1 0-6.18 4.42 4.42 0 0 0 0-4.55 1 1 0 0 1-.1-.41.86.86 0 0 1 .86-.86.85.85 0 0 1 .75.45 6.17 6.17 0 0 1 0 6.18 4.42 4.42 0 0 0 0 4.55.86.86 0 0 1-.75 1.27zm0-12.2a.61.61 0 0 0-.61.61.59.59 0 0 0 .07.29 4.66 4.66 0 0 1 0 4.78 5.93 5.93 0 0 0 0 6 .62.62 0 0 0 .83.24.59.59 0 0 0 .29-.36.62.62 0 0 0-.05-.46 4.31 4.31 0 0 1-.66-2.39 4.26 4.26 0 0 1 .66-2.39 5.49 5.49 0 0 0 .8-3 5.42 5.42 0 0 0-.8-3 .6.6 0 0 0-.53-.32z" transform="translate(-631.98 -176.44)"/></svg>