<svg data-name="Слой 1" xmlns="http://www.w3.org/2000/svg" viewBox="0 0 43.52 43.5"><path data-name="&lt;Контур&gt;" d="M41.43 38.63a1.43 1.43 0 0 0 0-.65 8.23 8.23 0 0 0-1.34-2.24c-.21-.28-.43-.55-.64-.82a4.7 4.7 0 0 0 .68-.4c.44-.41.61-.74.07-1.11-.69-.47-1.39-.94-2.12-1.35s-1.61-.81-2.42-1.22l-.55-.28a4.68 4.68 0 0 0 1.77-2.51l-.11-.31c-.18-.24-.36-.49-.56-.71a1.78 1.78 0 0 0-.38-.28 2.61 2.61 0 0 0-1.15-.63.44.44 0 0 1-.1-.08c-.13-.19-.22-.4-.36-.58a1.8 1.8 0 0 0-1.37-.59 13.37 13.37 0 0 0-3.55.42 20.26 20.26 0 0 1-2.17.42 13.84 13.84 0 0 1-2-.08l-1-.09a3.32 3.32 0 0 1 .77-.44c1.3-.51 2.59-1 3.91-1.5a4.83 4.83 0 0 1 2.38-.32l4.46.73a13.34 13.34 0 0 0 2.83.19.9.9 0 0 0 .72-1.52l-.5-.62c.6-.34 1.19-.67 1.77-1a3.15 3.15 0 0 0 1.33-1.42c.33-.74.64-1.49 1-2.23a.29.29 0 0 0-.05-.34 4 4 0 0 0-1.83-1.33.38.38 0 0 1-.31-.39 1.09 1.09 0 0 0-1.61-1l-1.48.48.21-.23c.8-.81 1.61-1.6 2.4-2.42.46-.47.88-1 1.31-1.48a.47.47 0 0 0 .06-.57 2.14 2.14 0 0 0-1.75-.93h-.21c.39-.84.8-1.66 1.15-2.52a4.63 4.63 0 0 0 .33-2.55 1.57 1.57 0 0 0-.68-1.2 3 3 0 0 0-1.09-.35 6.89 6.89 0 0 0-3.88 1c-.32.16-.61.34-.94.53a.69.69 0 0 1 0-.16 1.8 1.8 0 0 0-.76-1.64c-.34-.39-.58-.37-.9-.11-.13.1-.26.2-.38.31l-3.45 3.36a2.38 2.38 0 0 1-.22.18c.18-.57.36-1.08.51-1.6a1 1 0 0 0-.31-1.19 1.57 1.57 0 0 0-.74-.26.45.45 0 0 1-.44-.35A3.89 3.89 0 0 0 26.4.84a.37.37 0 0 0-.29 0c-.62.26-1.24.52-1.85.8a3.65 3.65 0 0 0-1.19.72 8 8 0 0 0-1.26 1.83c-.13.25-.25.5-.37.75-.26-.21-.49-.41-.74-.58a.87.87 0 0 0-1.38.47 2.78 2.78 0 0 0-.07.57 21.24 21.24 0 0 0 .42 3.89c.18 1.06.39 2.12.53 3.18a5.07 5.07 0 0 1-.37 2.46c-.48 1.26-1 2.52-1.46 3.78-.11.27-.25.53-.38.8h-.07a26.85 26.85 0 0 1 .29-5.3c.1-.6.23-1.19.31-1.78a5.48 5.48 0 0 0 0-2.21 1.2 1.2 0 0 0-.69-.91.64.64 0 0 1-.4-.37 5.64 5.64 0 0 0-1.21-1.76 1.14 1.14 0 0 0-1.35-.28 3.15 3.15 0 0 0-.72.46c-.41.37-.79.77-1.2 1.18a.92.92 0 0 1-.12-.18c-.67-1.29-1.31-2.59-2-3.86a10.54 10.54 0 0 0-.91-1.23.35.35 0 0 0-.54-.08 2.32 2.32 0 0 0-.49.45 2.93 2.93 0 0 0-.31.56l-.25-.19c-.34-.26-.67-.53-1-.78a7.64 7.64 0 0 0-1.8-1 .79.79 0 0 0-1.13.47 6.17 6.17 0 0 0-.41 1.94c0 .32 0 .64-.06.91a2.64 2.64 0 0 0-.58 0c-.27.08-.52.22-.78.32a.73.73 0 0 0-.42.88 1.32 1.32 0 0 0 .08.33A9.06 9.06 0 0 0 3.64 9.6l.6.81c-.28-.11-.52-.24-.77-.31a1.38 1.38 0 0 0-1.7 1.27 3 3 0 0 0 .4 1 11.22 11.22 0 0 0 2 2.44c1.11 1.07 2.27 2.09 3.41 3.13l.8.7-2.63-1a3.93 3.93 0 0 0-4.88 1.67.73.73 0 0 0 0 .78 5.52 5.52 0 0 0 1.37 1.48c.2.16.4.28.21.57a.36.36 0 0 0 0 .15 1.66 1.66 0 0 0 1 1.52 6.52 6.52 0 0 0 2 .44l.27.06-.69.58a3.1 3.1 0 0 0-.34.61.65.65 0 0 0 .05.51l.09.4a2.09 2.09 0 0 0 .74.61 4.73 4.73 0 0 0 1.91.09 36.54 36.54 0 0 0 7.19-1.8 4.75 4.75 0 0 1 2.21-.28c.51.09.72.46.47.91a4.46 4.46 0 0 1-.72 1c-1 1-2 2-3.05 3a43.43 43.43 0 0 0-4.42 4.77 12.23 12.23 0 0 0-2 3.41 2.37 2.37 0 0 0-.19 1 2.2 2.2 0 0 0 1.32 1.8c.21.11.27 0 .36-.14l1.46-2.77a4.35 4.35 0 0 0 .45-.92 1.55 1.55 0 0 1 .26-.39c.06-.08.15-.15.2-.23l1.88-2.83q.66-1 1.35-2c.53-.72 1.07-1.42 1.62-2.13a11.92 11.92 0 0 1 2.14-2.29 3 3 0 0 1 .71-.37c.16-.07.24 0 .2.2a.66.66 0 0 1-.06.2 7.87 7.87 0 0 0-.52 1.1c-.33 1-.64 2-.92 3a28.36 28.36 0 0 0-1 4.75v1.2a1 1 0 0 0 .17.61V38a.4.4 0 0 0 .3.39l.06.08.16.13c.6.46 1.24.25 1.75-.39a.77.77 0 0 0 .5-.07 1.84 1.84 0 0 1 .06.4 3.1 3.1 0 0 0 .66 2 1.5 1.5 0 0 0 1.53.42.27.27 0 0 1 .21.06c.09.09.16.2.25.3a5.66 5.66 0 0 0 1.4 1.27.72.72 0 0 0 .8 0 4 4 0 0 0 1.92-2.93 5 5 0 0 0-.49-2.58l-.84-2c.27.31.52.58.75.87a38.51 38.51 0 0 0 4.48 4.64 6 6 0 0 0 1.63 1 1.11 1.11 0 0 0 1.27-.2 1.3 1.3 0 0 0 .47-1.43 7.06 7.06 0 0 0-.3-.73c.42.31.82.61 1.24.89a7.33 7.33 0 0 0 2.12 1.13c.37.11.79.21 1.05-.15a1.72 1.72 0 0 0 .44-1.55c.52 0 1-.07 1.52-.14a1.53 1.53 0 0 0 1.13-.4.37.37 0 0 1 .31-.09.34.34 0 0 0 .46-.29z" fill="none" stroke="#97c340" stroke-miterlimit="10" stroke-width="1.5"/></svg>