<svg data-name="Слой 1" xmlns="http://www.w3.org/2000/svg" viewBox="0 0 40.24 40.42"><path d="M33.14 7.1C26.55.52 19.04-1.59 11.98 1.19l-.91.36.53.82c.25.38.5.73.74 1.07a20.47 20.47 0 0 0-5.27 3.89c-3.52 3.52-6 9.51-6.81 16.44-.57 4.8-.19 9.09.93 11.82a4 4 0 0 0 1 1.79s.06 0 .09.06a1.34 1.34 0 0 0 .11.14 2 2 0 0 0 .22.19c1.76 1.58 5 2.46 9.26 2.49h.19c6.7 0 15.65-2.23 20.67-7.26a20.42 20.42 0 0 0 4-5.45c.35.24.72.47 1.11.7l.82.48.34-.88c2.62-7 .49-14.41-6-20.91zm-1.37 24.93c-4.75 4.75-13.35 6.82-19.72 6.79a23.8 23.8 0 0 1-3-.21c4.38-.87 9.83-3.69 12.34-7.79a.804.804 0 0 0-1.37-.84c-2.41 3.94-8.22 6.78-12.45 7.25-1.84.2-3.25-.05-3.91-.69-.46-1 2.21-6.8 6-9.63a.81.81 0 0 0 .17-1.12.8.8 0 0 0-1.12-.17 20.84 20.84 0 0 0-6.13 8.25 9.16 9.16 0 0 1 .06-1.54c.47-4.23 3.31-10 7.25-12.45a.81.81 0 0 0 .26-1.1.8.8 0 0 0-1.1-.27c-3.59 2.2-6.21 6.65-7.38 10.67a34.39 34.39 0 0 1 .22-5.19c.76-6.48 3.13-12.28 6.35-15.49a19 19 0 0 1 5.15-3.75c2.53 3 4.92 3.91 6.46 4.2-.17.24-.32.48-.47.72a4.13 4.13 0 0 0-.25.38c-.11.17-.18.33-.28.5s-.22.39-.32.59-.08.17-.12.26c-.12.27-.25.53-.35.8v.09a11.85 11.85 0 0 0-.08 8.87l.12.29.29.12a11.72 11.72 0 0 0 7.93.25c.29-.09.59-.19.88-.31l.15-.05.69-.31.36-.16.55-.3c.18-.1.36-.19.54-.3s.26-.17.39-.25.47-.3.71-.47c.31 1.67 1.42 4.36 5 7.13a18.69 18.69 0 0 1-3.79 5.26zm6.2-5.51l-.67-.46-.28-.2c-5.41-3.91-5-7.47-5-7.66l.36-2.16-1.66 1.41c-5.28 4.49-10.14 3.21-11.47 2.73-.08-.25-.2-.62-.31-1.09a11 11 0 0 1-.22-2.42 12.54 12.54 0 0 1 3.27-7.95l1.4-1.66-2.07.34h-.24c-.7 0-3.61-.13-6.87-4.2l-.23-.28c-.16-.2-.31-.39-.46-.61 6.15-2 12.68.09 18.49 5.9s7.83 12.19 6 18.28zm0 0" fill="#97c340"/></svg>