<svg id="Слой_1" data-name="Слой 1" xmlns="http://www.w3.org/2000/svg" viewBox="0 0 45.96 45.97"><defs><style>.cls-1{fill:#96c93d}</style></defs><path class="cls-1" d="M943.76 558.33a.84.84 0 0 1-.67.33.87.87 0 0 1-.53-.18.84.84 0 0 1-.15-1.19.82.82 0 0 1 .67-.33.85.85 0 0 1 .52.17.84.84 0 0 1 .16 1.2zm0-7.33a.84.84 0 0 1-.67.33.87.87 0 0 1-.53-.18.84.84 0 0 1-.15-1.19.82.82 0 0 1 .67-.33.92.92 0 0 1 .52.17.84.84 0 0 1 .16 1.2zm0-7.43a.83.83 0 0 1-1.2.15.84.84 0 0 1-.15-1.19.8.8 0 0 1 .56-.32h.11a.82.82 0 0 1 .52.18.85.85 0 0 1 .16 1.18zm34.72 14.13a.86.86 0 0 1-.17.63.85.85 0 0 1-.68.33.86.86 0 0 1-.52-.18.85.85 0 0 1 .52-1.52.8.8 0 0 1 .51.17.82.82 0 0 1 .34.57zm0-7.38a.85.85 0 0 1-.85 1 .87.87 0 0 1-.51-.17.86.86 0 0 1-.16-1.19.85.85 0 0 1 1.19-.17.82.82 0 0 1 .33.53zm-.17-6.75a.86.86 0 0 1-.68.34.81.81 0 0 1-.51-.18.85.85 0 1 1 1-1.35.85.85 0 0 1 .19 1.19zm-6.89 3.17a.85.85 0 0 1-.85.85.85.85 0 1 1 .86-.85zM951 554.12a.86.86 0 1 1-.86-.85.85.85 0 0 1 .86.85zm-6.19-20.49a.85.85 0 0 1-.85.85.84.84 0 0 1-.6-.25.85.85 0 0 1 0-1.2.84.84 0 0 1 .6-.25.85.85 0 0 1 .85.85z" transform="translate(-937.38 -516.38)"/><path class="cls-1" d="M982.49 538.51h-3.92l.16-.09a5.3 5.3 0 0 0-.25-9.34 5.31 5.31 0 0 0-4.85-7.47 5.19 5.19 0 0 0-2.59.68 6.16 6.16 0 0 0-3.55-1.12h-.3a6.91 6.91 0 0 0-12.77-.76h-.65a6.89 6.89 0 0 0-6.36 4.23l-.57-.16a4 4 0 0 1 1.1-2.65 2.53 2.53 0 0 1 1.09-.63 1 1 0 0 0 .48-.24.86.86 0 0 0 .25-.6.82.82 0 0 0-.25-.6.86.86 0 0 0-.6-.25h-.19a3.92 3.92 0 0 0-1.87 1l-.08.07v-3.2a.85.85 0 0 0-.85-.85h-2.16a.85.85 0 0 0-.85.85v3.5l-.09-.1a10.82 10.82 0 0 0-2.23-2.06.85.85 0 0 0-.93 1.42s2.77 1.84 3.18 4.5a7.05 7.05 0 0 0-5.21 6.69 39.44 39.44 0 0 0 1.47 7.21v.06h-.64a.86.86 0 0 0-.85.85v22.05a.85.85 0 0 0 .85.85h44.26a.85.85 0 0 0 .85-.85v-22.14a.86.86 0 0 0-1.08-.85zm-33.67-13.3a5.18 5.18 0 0 1 5.85-3.1.86.86 0 0 0 1-.55 5.21 5.21 0 0 1 9.76-.19 6.21 6.21 0 0 0-4.15 5.84.85.85 0 1 0 1.7 0 4.49 4.49 0 0 1 7.46-3.36.85.85 0 0 0 1.07.05 3.6 3.6 0 0 1 5.06 5 .85.85 0 0 0-.12.8.86.86 0 0 0 .59.54 3.61 3.61 0 0 1-.88 7.1 4 4 0 0 1-.69-.07.84.84 0 0 0-1 .55 3.38 3.38 0 0 1-.27.58h-1.26l.05-.07 3.69-5.29a.85.85 0 0 0 .14-.64.91.91 0 0 0-.37-.55l-2.62-1.75a.85.85 0 0 0-1.2.27l-1.46 2.42 1.13-5.71a.85.85 0 0 0-.66-1l-2.29-.47a.84.84 0 0 0-.65.13.81.81 0 0 0-.36.55L968 528h-2.14a.86.86 0 0 0-.85.85V534h-.1a6.6 6.6 0 0 0-12.6-1.22l-.17.41.07-.44a10.46 10.46 0 0 0 .17-1.56 6.64 6.64 0 0 0-.91-3.35 3.35 3.35 0 0 1 3.14-2.19 3.05 3.05 0 0 1 .67.07.87.87 0 0 0 1-.55 3.26 3.26 0 0 1 1-1.44.83.83 0 0 0 .3-.58.86.86 0 0 0-.2-.62.84.84 0 0 0-.58-.29.78.78 0 0 0-.62.2 5.05 5.05 0 0 0-1.19 1.49h-.31a5 5 0 0 0-4.28 2.37v.06a7.15 7.15 0 0 0-1.42-1.07zm21.36 12.57l3.42-5.66 1.12.74-3.92 5.62h-.8zm-1-3.55h-.1v-2.53l.76-4.09.62.13zm-2.43 2.69a.34.34 0 0 0 0-.1v-7.09h.63v8.8H967a.91.91 0 0 0 0-.17 4 4 0 0 0-.28-1.44zm-5.51 1.37a2 2 0 1 1 4.06 0 1.09 1.09 0 0 1 0 .18h-4a1.09 1.09 0 0 1-.09-.18zm-6.79-5.53h-.17v-.08a5 5 0 0 1 4.14-2.27 4.91 4.91 0 0 1 4.82 4v.06h-.06a3.73 3.73 0 0 0-3 1.57v.06-.06a6.62 6.62 0 0 0-5.76-3.28zm4.83 5.75h-9.66a4.9 4.9 0 0 1 9.64 0zm-14.88-20.43h.46v6.13h-.46zm-5.27 12.44h4.66a.85.85 0 0 0 0-1.7h-4.08v-.08a5.9 5.9 0 0 1 5.11-2.81 5.59 5.59 0 0 1 5.81 5.33 9.37 9.37 0 0 1-.18 1.47h-3.61a.85.85 0 0 0 0 1.7H950l-.09.08a6.68 6.68 0 0 0-2 3.93h-7.24a42.88 42.88 0 0 1-1.54-7.24 4.51 4.51 0 0 1 0-.68zm42.51 15.37h-8a.85.85 0 0 0 0 1.7h8v5.68h-28.42a.85.85 0 0 0 0 1.7h28.42v5.68h-42.56V555h8a.85.85 0 0 0 0-1.7h-8v-5.68h28.42a.85.85 0 0 0 0-1.7h-28.42v-5.68h42.56z" transform="translate(-937.38 -516.38)"/><path class="cls-1" d="M960.26 522.09a.85.85 0 0 1-.85.85.85.85 0 1 1 .86-.85z" transform="translate(-937.38 -516.38)"/></svg>