<svg id="Слой_1" data-name="Слой 1" xmlns="http://www.w3.org/2000/svg" viewBox="0 0 70.07 44.76"><defs><style>.cls-1{fill:#96c23f}</style></defs><path class="cls-1" d="M657 190.46a1.47 1.47 0 0 1-.71-.18l.08-.18a2 2 0 0 0 1.39-.07l.09.17a1.57 1.57 0 0 1-.85.26zm-2.87 29.59h-20.64a4.92 4.92 0 0 1-4.92-4.91v-22.82a4.91 4.91 0 0 1 .56-2.29v-.09l.08.05a2 2 0 0 0 .88.2 2 2 0 0 0 2-1.95.79.79 0 0 1 .78-.73.73.73 0 0 1 .73.73 2 2 0 0 0 3.91 0 .73.73 0 0 1 .72-.73.73.73 0 0 1 .73.73 2 2 0 0 0 3.91 0 .72.72 0 1 1 1.44 0 2 2 0 0 0 3.92 0 .72.72 0 1 1 1.44 0 2 2 0 0 0 3.92 0 .71.71 0 0 1 .67-.72h.17l-.07.15a2.86 2.86 0 0 0 .58 3.3 3.81 3.81 0 0 0 1.52.73h.13l-.06.11a2.77 2.77 0 0 0-.29 1.22 2.65 2.65 0 0 0 .86 2 2.83 2.83 0 0 0 1.85.86h.1V205l-2.3 2.14v-11.3a.62.62 0 0 0-.62-.62h-24.64a.62.62 0 0 0-.62.62v16a.62.62 0 0 0 .62.62h23.34v.09a6.68 6.68 0 0 0 1.9 4 7.41 7.41 0 0 0 1.49 1.13l.09.05-.06.09a4.89 4.89 0 0 1-4.12 2.23zm-24.87-29.84a4.74 4.74 0 0 0-.49 2.11v22.82a4.71 4.71 0 0 0 4.72 4.71h20.64a4.69 4.69 0 0 0 3.9-2.07 7.29 7.29 0 0 1-1.44-1.11 6.81 6.81 0 0 1-1.94-4h-23.16a.82.82 0 0 1-.82-.82v-16a.82.82 0 0 1 .82-.82h24.64a.82.82 0 0 1 .81.82v10.87l1.91-1.77v-8.82a3 3 0 0 1-1.88-.91 2.8 2.8 0 0 1-.93-2.16 2.9 2.9 0 0 1 .26-1.19 4 4 0 0 1-1.49-.75 3.05 3.05 0 0 1-.71-3.35.53.53 0 0 0-.31.48 2.16 2.16 0 0 1-4.31 0 .53.53 0 0 0-.53-.53.52.52 0 0 0-.52.53 2.16 2.16 0 0 1-4.31 0 .53.53 0 0 0-.53-.53.52.52 0 0 0-.52.53 2.16 2.16 0 0 1-4.31 0 .53.53 0 0 0-.53-.53.52.52 0 0 0-.52.53 2.16 2.16 0 0 1-4.31 0 .53.53 0 0 0-.53-.53.59.59 0 0 0-.58.53 2.15 2.15 0 0 1-2.15 2.15 2.23 2.23 0 0 1-.88-.19z" transform="translate(-627.14 -176.8)"/><path class="cls-1" d="M654.84 211.19h-22.73v-14.73h23.4v12.43a6.33 6.33 0 0 0-.65 2.21zM632.3 211h22.36a6.57 6.57 0 0 1 .65-2.17v-12.17h-23zm19.33-22a.72.72 0 0 1-.72-.72 2 2 0 1 0-3.91 0 .73.73 0 0 1-.73.72.72.72 0 0 1-.72-.72 2 2 0 1 0-3.92 0 .72.72 0 1 1-1.44 0 2 2 0 0 0-3.92 0 .72.72 0 1 1-1.44 0 2 2 0 0 0-2-2 2 2 0 0 0-2 2 .72.72 0 0 1-1.39.28 1 1 0 0 1-.06-.25 12 12 0 0 1 2-2.61H653a2.59 2.59 0 0 0 .41.46l.16.16.12.11-.15.06a2 2 0 0 0-1.22 1.81.72.72 0 0 1-.69.7zm-2.63-2.92a2.16 2.16 0 0 1 2.16 2.16.52.52 0 0 0 1 0 2.16 2.16 0 0 1 1.21-1.94l-.06-.06a2.44 2.44 0 0 1-.4-.44h-21.38a12.86 12.86 0 0 0-1.92 2.48.75.75 0 0 0 0 .16.55.55 0 0 0 .49.32.52.52 0 0 0 .52-.52 2.21 2.21 0 0 1 2.21-2.16 2.16 2.16 0 0 1 2.16 2.16.52.52 0 1 0 1 0 2.16 2.16 0 1 1 4.32 0 .52.52 0 0 0 .52.52.52.52 0 0 0 .53-.52 2.16 2.16 0 1 1 4.31 0 .52.52 0 0 0 .52.52.52.52 0 0 0 .53-.52 2.16 2.16 0 0 1 2.28-2.16zm3.59-1.72h-21.24c-.49 0-1.49-1-1.49-2.21a2.57 2.57 0 0 1 2.72-2.53H655a2.7 2.7 0 0 1 .63.07h.19l-2.38 2.33a2.61 2.61 0 0 0-.86 2v.28zm-20-4.54a2.37 2.37 0 0 0-2.52 2.33 2.17 2.17 0 0 0 1.29 2h21v-.08a2.84 2.84 0 0 1 .93-2.17l2.09-2.06a2.69 2.69 0 0 0-.4 0zm35.51 18.56a1.47 1.47 0 0 1-1.12-.48 1.55 1.55 0 0 1 0-2.23l4.26-4.26a1.55 1.55 0 0 1 1.11-.48 1.64 1.64 0 0 1 1.6 1.6 1.55 1.55 0 0 1-.48 1.11l-4.26 4.27a1.47 1.47 0 0 1-1.11.47zm4.26-7.25a1.37 1.37 0 0 0-1 .42l-4.26 4.26a1.39 1.39 0 0 0-.42 1 1.37 1.37 0 0 0 .42 1 1.34 1.34 0 0 0 1.94 0l4.27-4.27a1.37 1.37 0 0 0 .42-1 1.44 1.44 0 0 0-1.4-1.4zM693.37 220l-.07-.07-22.12-22.12.08-.07 2.18-2.14.07.07 22.1 22.1-.08.07zm-21.9-22.19l21.9 21.91 2-1.95-21.88-21.89zm-8.08-1a1.58 1.58 0 0 1-1.11-2.71l7.4-7.4a1.55 1.55 0 0 1 1.11-.48 1.57 1.57 0 0 1 1.12.48 1.57 1.57 0 0 1 .48 1.12 1.55 1.55 0 0 1-.48 1.11l-7.4 7.41a1.62 1.62 0 0 1-1.12.47zm7.4-10.39a1.37 1.37 0 0 0-1 .42l-7.4 7.4a1.39 1.39 0 0 0-.42 1 1.44 1.44 0 0 0 1.39 1.39 1.39 1.39 0 0 0 1-.42l7.4-7.4a1.37 1.37 0 0 0 .42-1 1.39 1.39 0 0 0-.42-1 1.39 1.39 0 0 0-.97-.39z" transform="translate(-627.14 -176.8)"/><path class="cls-1" d="M654.13 220h-20.64a4.82 4.82 0 0 1-4.82-4.81v-22.87a4.79 4.79 0 0 1 .55-2.24 2.06 2.06 0 0 0 3-1.84.69.69 0 0 1 .68-.63.63.63 0 0 1 .63.63 2.06 2.06 0 0 0 4.11 0 .63.63 0 1 1 1.25 0 2.06 2.06 0 0 0 4.11 0 .63.63 0 1 1 1.25 0 2.06 2.06 0 0 0 4.11 0 .63.63 0 0 1 .62-.63.62.62 0 0 1 .62.63 2.06 2.06 0 0 0 4.12 0 .62.62 0 0 1 .58-.62 3.34 3.34 0 0 1 .42-.66 2.7 2.7 0 0 1-1.16-.63 2.07 2.07 0 0 0-1.28 1.91.62.62 0 0 1-1.24 0 2.06 2.06 0 1 0-4.11 0 .63.63 0 0 1-1.25 0 2.06 2.06 0 1 0-4.11 0 .63.63 0 0 1-1.25 0 2.06 2.06 0 1 0-4.12 0 .62.62 0 0 1-.62.62.62.62 0 0 1-.62-.62 2.06 2.06 0 0 0-2.06-2.06 2.11 2.11 0 0 0-2.11 2.06.63.63 0 0 1-1.2.24.8.8 0 0 1 0-.21 12.39 12.39 0 0 1 2-2.57H653a2.7 2.7 0 0 1-.46-1.43h-21.19a2.26 2.26 0 0 1-1.39-2.11 2.47 2.47 0 0 1 2.62-2.43H655a2.43 2.43 0 0 1 .61.07l1.16-1.14a4.44 4.44 0 0 0-1.77-.36h-22.42a3.87 3.87 0 0 0-4.05 3.86 3.61 3.61 0 0 0 1.53 3l-.63.73c-1.19 1.45-1.35 2-1.35 2.37a2.18 2.18 0 0 0 .13.72 6.18 6.18 0 0 0-1 3.36v22.82a6.26 6.26 0 0 0 6.24 6.25h20.65a6.24 6.24 0 0 0 5.37-3.07 7 7 0 0 1-1.33-.57 4.82 4.82 0 0 1-4.01 2.23z" transform="translate(-627.14 -176.8)"/><path class="cls-1" d="M654.13 221.49h-20.65a6.35 6.35 0 0 1-6.34-6.35v-22.82a6.32 6.32 0 0 1 1-3.37 2.16 2.16 0 0 1-.12-.71c0-.39.16-1 1.38-2.43l.55-.65a3.74 3.74 0 0 1-1.48-3 4 4 0 0 1 4.15-4H655a4.48 4.48 0 0 1 1.81.37l.13.06-1.29 1.27h-.06a3 3 0 0 0-.59-.06h-22.42a2.37 2.37 0 0 0-2.52 2.33 2.17 2.17 0 0 0 1.29 2h21.23v.1a2.79 2.79 0 0 0 .45 1.38l.11.14h-21.61a12.86 12.86 0 0 0-1.92 2.48.75.75 0 0 0 0 .16.55.55 0 0 0 .49.32.52.52 0 0 0 .52-.52 2.21 2.21 0 0 1 2.21-2.16 2.16 2.16 0 0 1 2.16 2.16.52.52 0 1 0 1 0 2.16 2.16 0 1 1 4.32 0 .52.52 0 0 0 .52.52.52.52 0 0 0 .53-.52 2.16 2.16 0 1 1 4.31 0 .52.52 0 0 0 .52.52.52.52 0 0 0 .53-.52 2.16 2.16 0 1 1 4.31 0 .52.52 0 0 0 1 0 2.15 2.15 0 0 1 1.35-2h.06a2.71 2.71 0 0 0 1.12.61h.15l-.1.12a3 3 0 0 0-.41.63v.05h-.05a.52.52 0 0 0-.49.52 2.16 2.16 0 0 1-4.31 0 .53.53 0 0 0-.53-.53.52.52 0 0 0-.52.53 2.16 2.16 0 0 1-4.31 0 .53.53 0 0 0-.53-.53.52.52 0 0 0-.52.53 2.16 2.16 0 0 1-4.31 0 .53.53 0 0 0-.53-.53.52.52 0 0 0-.52.53 2.16 2.16 0 0 1-4.31 0 .53.53 0 0 0-.53-.53.59.59 0 0 0-.58.53 2.15 2.15 0 0 1-2.15 2.15 2.23 2.23 0 0 1-.88-.18 4.74 4.74 0 0 0-.49 2.11v22.82a4.71 4.71 0 0 0 4.72 4.71H654a4.72 4.72 0 0 0 4-2.16v-.08h.08a6.58 6.58 0 0 0 1.31.57h.13l-.07.11a6.41 6.41 0 0 1-5.32 3.32zm-21.55-43.1a3.77 3.77 0 0 0-4 3.76 3.55 3.55 0 0 0 1.49 2.91l.09.07-.08.08-.62.73c-1.17 1.42-1.33 1.94-1.33 2.3a1.79 1.79 0 0 0 .13.68v.08a6.15 6.15 0 0 0-1 3.31v22.82a6.16 6.16 0 0 0 6.15 6.15h20.65a6.18 6.18 0 0 0 5.22-2.91 7.7 7.7 0 0 1-1.15-.5 4.9 4.9 0 0 1-4.07 2.17h-20.57a4.92 4.92 0 0 1-4.92-4.91v-22.81a4.91 4.91 0 0 1 .56-2.29v-.09l.08.05a2 2 0 0 0 .88.2 2 2 0 0 0 2-1.95.79.79 0 0 1 .78-.73.73.73 0 0 1 .73.73 2 2 0 0 0 3.91 0 .73.73 0 0 1 .72-.73.73.73 0 0 1 .73.73 2 2 0 0 0 3.91 0 .72.72 0 1 1 1.44 0 2 2 0 0 0 3.92 0 .72.72 0 1 1 1.44 0 2 2 0 0 0 3.92 0 .73.73 0 0 1 .61-.72 2.84 2.84 0 0 1 .32-.5 3 3 0 0 1-1-.57 2 2 0 0 0-1.16 1.79.72.72 0 1 1-1.44 0 2 2 0 1 0-3.91 0 .73.73 0 0 1-.73.72.72.72 0 0 1-.72-.72 2 2 0 1 0-3.92 0 .72.72 0 1 1-1.44 0 2 2 0 0 0-3.92 0 .72.72 0 1 1-1.44 0 2 2 0 0 0-2-2 2 2 0 0 0-2 2 .72.72 0 0 1-1.39.28 1 1 0 0 1-.06-.25 12 12 0 0 1 2-2.61h21.32a3 3 0 0 1-.38-1.24h-21c-.49 0-1.49-1-1.49-2.21a2.57 2.57 0 0 1 2.72-2.53H655a2.93 2.93 0 0 1 .58.06l1-1a4.24 4.24 0 0 0-1.59-.3zM659 196v9l1.43-1.33v-7.88a2.89 2.89 0 0 1-1.25.27z" transform="translate(-627.14 -176.8)"/><path class="cls-1" d="M658.85 205.21v-9.28h.15a2.67 2.67 0 0 0 1.35-.25l.14-.07v8.08zm.2-9.07v8.61l1.23-1.14v-7.69a2.83 2.83 0 0 1-1.23.22zm-2.92-1.02h-24.64a.72.72 0 0 0-.72.72v16a.72.72 0 0 0 .72.72h23.25a6.3 6.3 0 0 1 0-1.44H632.2v-14.56h23.21v12.28a6.68 6.68 0 0 1 1.25-1.73l.18-.17v-11.1a.72.72 0 0 0-.71-.72z" transform="translate(-627.14 -176.8)"/><path class="cls-1" d="M654.85 212.63h-23.36a.82.82 0 0 1-.82-.82v-16a.82.82 0 0 1 .82-.82h24.64a.82.82 0 0 1 .81.82V207l-.21.2a6.53 6.53 0 0 0-1.23 1.71l-.19.38v-12.63h-23V211h22.56v.11a6.75 6.75 0 0 0 0 1.42zm-23.36-17.41a.62.62 0 0 0-.62.62v16a.62.62 0 0 0 .62.62h23.14a6.42 6.42 0 0 1 0-1.24h-22.52v-14.76h23.4v12a6.77 6.77 0 0 1 1.08-1.41l.16-.15v-11a.62.62 0 0 0-.62-.62zm43.04-.53a2.92 2.92 0 0 0 .9-2.09 2.7 2.7 0 0 0-.9-2.09 3.8 3.8 0 0 0-1.45-.81 3 3 0 0 0-.19-4 3.08 3.08 0 0 0-1.34-.79 3 3 0 0 0-4.23-4.23 2.58 2.58 0 0 0-.79-1.26 3 3 0 0 0-3.93-.29 2.59 2.59 0 0 0-.78-1.28 2.94 2.94 0 0 0-2.09-.9 2.7 2.7 0 0 0-2.09.9l-.87.85-1.16 1.14-2.24 2.2a2.73 2.73 0 0 0-.89 2.09 1.09 1.09 0 0 0 0 .18 2.7 2.7 0 0 0 .46 1.43 2.41 2.41 0 0 0 .42.48c0 .06.11.11.16.16a2.7 2.7 0 0 0 1.16.63 3.34 3.34 0 0 0-.42.66 3 3 0 0 0 .6 3.41 3.75 3.75 0 0 0 1.57.76 2.81 2.81 0 0 0-.3 1.26 2.7 2.7 0 0 0 .9 2.09 2.93 2.93 0 0 0 1.97.81h.18a2.89 2.89 0 0 0 1.25-.27 2.6 2.6 0 0 0 .83 1.47 3 3 0 0 0 2.17 1 2.93 2.93 0 0 0 1.87-.69 2.62 2.62 0 0 0 .82 1.44 3.09 3.09 0 0 0 2.1.82 2.72 2.72 0 0 0 2.05-.86l22.24 22.24a1.34 1.34 0 0 0 .9.3 1.41 1.41 0 0 0 .9-.37l2.47-2.47a1.26 1.26 0 0 0 .37-.9 1.41 1.41 0 0 0-.37-.9zM664.44 180a1.49 1.49 0 0 1 1 .45 1.25 1.25 0 0 1 .44 1 1.34 1.34 0 0 1-.2.74l-6.48 6.53-1.2 1.22a1.24 1.24 0 0 1-.22.18 1.45 1.45 0 0 1-1.46.07 1.25 1.25 0 0 1-.37-.28 1.44 1.44 0 0 1 0-2.09l.26-.26.64-.64 1-1 3.89-3.89 1.57-1.57a1.47 1.47 0 0 1 1.13-.46zm-10 3.14l2.57-2.57 1-1 .67-.67a1.27 1.27 0 0 1 1.05-.45 1.52 1.52 0 0 1 1.49 1.49 1.41 1.41 0 0 1-.21.74l-2 2-2.82 2.82a1.23 1.23 0 0 1-.26.12 1.44 1.44 0 0 1-1.52-.36 1.44 1.44 0 0 1 0-2.09zm4.56 11.38a1.31 1.31 0 0 1-.79-.42 1.45 1.45 0 0 1 0-2.1l.68-.68 1.16-1.15 8.18-8.18a1.44 1.44 0 0 1 2.09 0 1.44 1.44 0 0 1 0 2.09l-1.21 1.21a2.42 2.42 0 0 0-.43.36l-7.41 7.4a3.16 3.16 0 0 0-.37.45l-.47.47-.13.13a1.48 1.48 0 0 1-1.3.42zm3.4 1.75a1.49 1.49 0 0 1-.45-1.05 1.47 1.47 0 0 1 .45-1.05l7.4-7.4a1.44 1.44 0 0 1 2.09 0 1.44 1.44 0 0 1 0 2.09l-7.4 7.41a1.46 1.46 0 0 1-2.14 0zm4.71 1.57a1.49 1.49 0 0 1-.45-1.05 1.47 1.47 0 0 1 .45-1l2.13-2.13 2.13-2.13a1.48 1.48 0 1 1 2.09 2.09l-4.26 4.27a1.46 1.46 0 0 1-2.14-.05zm26.31 22l-22-22 2.11-2.07 22 22z" transform="translate(-627.14 -176.8)"/><path class="cls-1" d="M693.37 221.56a1.43 1.43 0 0 1-1-.33l-22.16-22.17a2.86 2.86 0 0 1-2.06.82A3.18 3.18 0 0 1 666 199a2.59 2.59 0 0 1-.82-1.33 3 3 0 0 1-1.81.61 3.18 3.18 0 0 1-2.24-1 2.64 2.64 0 0 1-.83-1.4 3 3 0 0 1-1.34.22 3 3 0 0 1-2-.92 2.8 2.8 0 0 1-.93-2.16 2.9 2.9 0 0 1 .26-1.19 4 4 0 0 1-1.49-.75 3.07 3.07 0 0 1-.63-3.54 3.87 3.87 0 0 1 .34-.55 2.74 2.74 0 0 1-1-.61l-.17-.17a2.6 2.6 0 0 1-.43-.49 2.83 2.83 0 0 1-.48-1.48v-.19a2.84 2.84 0 0 1 .93-2.17l4.26-4.18a2.8 2.8 0 0 1 2.16-.93 3 3 0 0 1 2.16.93 2.74 2.74 0 0 1 .77 1.19 3.06 3.06 0 0 1 3.94.38 2.53 2.53 0 0 1 .77 1.17 3.11 3.11 0 0 1 4.35 4.34 3.16 3.16 0 0 1 1.24.77 3.1 3.1 0 0 1 .29 4.07 4 4 0 0 1 1.35.78 2.84 2.84 0 0 1 .93 2.17 3 3 0 0 1-.86 2.09l22.14 22.06a1.53 1.53 0 0 1 .4 1 1.35 1.35 0 0 1-.4 1l-2.47 2.47a1.53 1.53 0 0 1-1.02.37zm-23.14-22.79l.07.08 22.24 22.24a1.2 1.2 0 0 0 .83.27 1.3 1.3 0 0 0 .83-.35l2.47-2.46a1.17 1.17 0 0 0 .34-.83 1.34 1.34 0 0 0-.34-.83l-22.28-22.2.07-.07a2.85 2.85 0 0 0 .87-2 2.66 2.66 0 0 0-.86-2 3.64 3.64 0 0 0-1.42-.78h-.15l.1-.12a2.9 2.9 0 0 0-.18-3.92 3 3 0 0 0-1.3-.76h-.14l.09-.12a2.91 2.91 0 0 0-4.09-4.09l-.12.1v-.15a2.52 2.52 0 0 0-.75-1.22 2.89 2.89 0 0 0-3.8-.28l-.12.09v-.14a2.57 2.57 0 0 0-.75-1.24 2.9 2.9 0 0 0-2-.87 2.62 2.62 0 0 0-2 .87l-4.27 4.19a2.61 2.61 0 0 0-.86 2v.18a2.79 2.79 0 0 0 .45 1.38 2.59 2.59 0 0 0 .41.46l.16.16a2.71 2.71 0 0 0 1.12.61h.15l-.1.12a3 3 0 0 0-.41.63 2.86 2.86 0 0 0 .58 3.3 3.81 3.81 0 0 0 1.52.73h.13l-.06.11a2.77 2.77 0 0 0-.29 1.22 2.65 2.65 0 0 0 .86 2 2.83 2.83 0 0 0 1.85.86 2.67 2.67 0 0 0 1.35-.25l.11-.05v.12a2.5 2.5 0 0 0 .8 1.41 2.93 2.93 0 0 0 2.1 1 2.77 2.77 0 0 0 1.8-.67l.13-.1v.16a2.54 2.54 0 0 0 .8 1.38 3 3 0 0 0 2 .8 2.62 2.62 0 0 0 2-.83zM693.37 220l-.07-.07-22.12-22.12.08-.07 2.18-2.14.07.07 22.1 22.1-.08.07zm-21.9-22.19l21.9 21.91 2-1.95-21.88-21.89zm-3.37.54a1.47 1.47 0 0 1-1.12-.48 1.55 1.55 0 0 1 0-2.23l4.26-4.26a1.55 1.55 0 0 1 1.11-.48 1.64 1.64 0 0 1 1.6 1.6 1.55 1.55 0 0 1-.48 1.11l-4.26 4.27a1.47 1.47 0 0 1-1.11.5zm4.26-7.25a1.37 1.37 0 0 0-1 .42l-4.26 4.26a1.39 1.39 0 0 0-.42 1 1.37 1.37 0 0 0 .42 1 1.3 1.3 0 0 0 1 .41 1.28 1.28 0 0 0 1-.41l4.27-4.27a1.37 1.37 0 0 0 .42-1 1.44 1.44 0 0 0-1.4-1.4zm-9 5.68a1.58 1.58 0 0 1-1.11-.47 1.55 1.55 0 0 1 0-2.24l7.4-7.4a1.55 1.55 0 0 1 1.11-.48 1.64 1.64 0 0 1 1.6 1.6 1.55 1.55 0 0 1-.48 1.11l-7.4 7.41a1.62 1.62 0 0 1-1.09.5zm7.4-10.39a1.37 1.37 0 0 0-1 .42l-7.4 7.4a1.39 1.39 0 0 0-.42 1 1.37 1.37 0 0 0 .42 1 1.37 1.37 0 0 0 1 .42 1.39 1.39 0 0 0 1-.42l7.4-7.4a1.37 1.37 0 0 0 .42-1 1.44 1.44 0 0 0-1.4-1.4zm-11.61 8.22a1.06 1.06 0 0 1-.25 0 1.38 1.38 0 0 1-.85-.46 1.55 1.55 0 0 1 0-2.23l10-10a1.55 1.55 0 0 1 1.11-.48 1.59 1.59 0 0 1 1.12.48 1.54 1.54 0 0 1 0 2.23l-1.21 1.21a2.64 2.64 0 0 0-.43.36l-7.41 7.4a3.73 3.73 0 0 0-.36.43l-.61.62a1.61 1.61 0 0 1-1.08.47zm-.22-.22a1.42 1.42 0 0 0 1.22-.39l.6-.6a2.6 2.6 0 0 1 .37-.45l7.4-7.4a3.44 3.44 0 0 1 .46-.38l1.22-1.17a1.34 1.34 0 0 0 0-1.95 1.39 1.39 0 0 0-1-.42 1.37 1.37 0 0 0-1 .42l-10 10a1.41 1.41 0 0 0-.42 1 1.39 1.39 0 0 0 .42 1 1.2 1.2 0 0 0 .73.39zm-1.94-4a1.47 1.47 0 0 1-.71-.18 1.54 1.54 0 0 1-.39-.3 1.57 1.57 0 0 1-.48-1.12 1.55 1.55 0 0 1 .48-1.11l7.4-7.4a1.55 1.55 0 0 1 2.24 0 1.33 1.33 0 0 1 .47 1.11 1.4 1.4 0 0 1-.22.79l-7.7 7.76a1.33 1.33 0 0 1-.24.19 1.57 1.57 0 0 1-.84.33zm7.42-10.39a1.39 1.39 0 0 0-1 .42l-7.4 7.4a1.37 1.37 0 0 0-.42 1 1.39 1.39 0 0 0 .42 1 1.07 1.07 0 0 0 .35.26 1.35 1.35 0 0 0 1.36-.06 1.51 1.51 0 0 0 .2-.17l7.69-7.74a1.19 1.19 0 0 0 .17-.67 1.15 1.15 0 0 0-.4-1 1.42 1.42 0 0 0-.94-.37zm-9 5.67a1.62 1.62 0 0 1-1.59-1.59 1.55 1.55 0 0 1 .48-1.11l4.26-4.26a1.34 1.34 0 0 1 1.12-.48 1.62 1.62 0 0 1 1.59 1.59 1.52 1.52 0 0 1-.22.79l-4.83 4.83a1.68 1.68 0 0 1-.3.15 1.75 1.75 0 0 1-.46.15zm4.27-7.24a1.15 1.15 0 0 0-1 .41l-4.27 4.27a1.37 1.37 0 0 0-.42 1 1.39 1.39 0 0 0 .42 1 1.3 1.3 0 0 0 1.66.22l4.79-4.79a1.32 1.32 0 0 0 .18-.67 1.42 1.42 0 0 0-1.39-1.39zm-2.84 28.51l-.18.17a6.68 6.68 0 0 0-1.25 1.73 6.76 6.76 0 0 0-.66 2.25 6.3 6.3 0 0 0 0 1.44 6.66 6.66 0 0 0 1.92 4.07 7.45 7.45 0 0 0 1.51 1.15 7 7 0 0 0 1.33.57 6.5 6.5 0 0 0 2 .3 6.93 6.93 0 0 0 4.78-2 6.71 6.71 0 0 0 0-9.49l-4.26-4a.71.71 0 0 0-1 0l-.55.51L659 205zm4.61-2.23l3.74 3.52a5.22 5.22 0 0 1-5.08 8.73 5.63 5.63 0 0 1-1.34-.57 5.06 5.06 0 0 1-1-.76 5.23 5.23 0 0 1-1.49-3.13 5.46 5.46 0 0 1 .54-3 5.17 5.17 0 0 1 .95-1.3l1.16-1.12 1.43-1.37z" transform="translate(-627.14 -176.8)"/><path class="cls-1" d="M661.45 218.72a6.66 6.66 0 0 1-3.33-.89 7.1 7.1 0 0 1-1.53-1.16 6.79 6.79 0 0 1-2-4.13 6.48 6.48 0 0 1 0-1.46 6.67 6.67 0 0 1 .67-2.28 6.93 6.93 0 0 1 1.27-1.76l.19-.18 4.08-3.79a.85.85 0 0 1 1.18 0l4.26 4a6.82 6.82 0 0 1 0 9.64 7.06 7.06 0 0 1-4.79 2.01zM656.91 207l-.18.17a6.53 6.53 0 0 0-1.23 1.71 6.33 6.33 0 0 0-.65 2.21 6.75 6.75 0 0 0 0 1.42 6.68 6.68 0 0 0 1.9 4 7.41 7.41 0 0 0 1.49 1.13 6.49 6.49 0 0 0 3.23.86 6.87 6.87 0 0 0 4.72-1.92 6.62 6.62 0 0 0 0-9.35l-4.26-4a.63.63 0 0 0-.9 0zm4.58 10.23a5.26 5.26 0 0 1-1.41-.19 5.38 5.38 0 0 1-1.36-.57 5.37 5.37 0 0 1-2-7 5.22 5.22 0 0 1 1-1.32l3.74-3.58.07.06 3.73 3.51a5.41 5.41 0 0 1 0 7.55 5.33 5.33 0 0 1-3.77 1.55zm0-12.39l-3.6 3.45a5.12 5.12 0 0 0-1.45 4.19 5.16 5.16 0 0 0 1.46 3.07 4.63 4.63 0 0 0 1 .75 5.29 5.29 0 0 0 1.3.55 5.12 5.12 0 0 0 5-8.56zm-24.61-4.9h1.3v4.64c0 2-.95 2.63-2.38 2.63a3.37 3.37 0 0 1-1.09-.17l.16-1a2.64 2.64 0 0 0 .81.13c.74 0 1.2-.34 1.2-1.58z" transform="translate(-627.14 -176.8)"/><path class="cls-1" d="M635.8 207.34a3.43 3.43 0 0 1-1.13-.18h-.1l.2-1.3h.14a2.63 2.63 0 0 0 .77.12c.64 0 1.07-.24 1.07-1.45v-4.73h1.56v4.77c0 1.87-.82 2.77-2.51 2.77zm-.95-.38a3.46 3.46 0 0 0 .95.13c1.54 0 2.26-.8 2.26-2.51v-4.52H637v4.48c0 1.18-.41 1.7-1.32 1.7a3 3 0 0 1-.71-.09zm7.59.14l-.08-.58a1.9 1.9 0 0 1-1.53.69 1.54 1.54 0 0 1-1.63-1.54c0-1.3 1.16-2 3.07-1.95v-.09c0-.34-.14-.9-1-.9a2.76 2.76 0 0 0-1.39.38l-.26-.85a3.79 3.79 0 0 1 1.87-.45 1.94 1.94 0 0 1 2.14 2.18v1.86a8.9 8.9 0 0 0 .07 1.25zm-.17-2.53c-.92 0-1.8.18-1.8 1a.69.69 0 0 0 .74.74 1.06 1.06 0 0 0 1-.71 1 1 0 0 0 0-.29z" transform="translate(-627.14 -176.8)"/><path class="cls-1" d="M640.8 207.34a1.65 1.65 0 0 1-1.75-1.67 1.75 1.75 0 0 1 .51-1.29 3.72 3.72 0 0 1 2.56-.79c0-.34-.19-.73-.93-.73a2.6 2.6 0 0 0-1.32.36l-.14.09-.33-1.1.08-.05a3.86 3.86 0 0 1 1.93-.48 2.06 2.06 0 0 1 2.26 2.31v1.86a9.49 9.49 0 0 0 .07 1.23v.14h-1.44l-.06-.45a2.06 2.06 0 0 1-1.44.57zm1.4-3.5a3.52 3.52 0 0 0-2.47.72 1.5 1.5 0 0 0-.43 1.11 1.41 1.41 0 0 0 1.5 1.42 1.84 1.84 0 0 0 1.43-.64h.16l.05.1.07.47h.93a8.68 8.68 0 0 1-.06-1.12V204a1.8 1.8 0 0 0-2-2.06 3.71 3.71 0 0 0-1.72.39l.18.61a3 3 0 0 1 1.32-.32c1.06 0 1.18.72 1.18 1v.22h-.17zm-1 2.56a.81.81 0 0 1-.87-.86.89.89 0 0 1 .27-.67 2.3 2.3 0 0 1 1.67-.43h.12v.83a1.12 1.12 0 0 1-1.19 1.12zm.93-1.71a2 2 0 0 0-1.35.36.66.66 0 0 0-.2.49.57.57 0 0 0 .62.61.93.93 0 0 0 .9-.62 1 1 0 0 0 0-.25v-.59zm2.8-1.23v-1.54H646l.06.77a1.78 1.78 0 0 1 1.59-.88 1.51 1.51 0 0 1 1.44.95 1.93 1.93 0 0 1 .63-.64 1.69 1.69 0 0 1 1-.31c.86 0 1.73.58 1.73 2.24v3h-1.27v-2.86c0-.86-.3-1.37-.92-1.37a1 1 0 0 0-.92.69 2 2 0 0 0-.06.44v3.1h-1.27v-3c0-.72-.29-1.23-.9-1.23a1 1 0 0 0-.93.74 1.22 1.22 0 0 0-.08.43v3.06h-1.27z" transform="translate(-627.14 -176.8)"/><path class="cls-1" d="M652.68 207.22h-1.52v-3c0-.83-.27-1.24-.8-1.24a.88.88 0 0 0-.8.6 2.16 2.16 0 0 0-.06.4v3.22H648v-3.1c0-.41-.1-1.1-.77-1.1a.89.89 0 0 0-.81.65.94.94 0 0 0-.07.39v3.18h-1.55v-5.42h1.38v.58a1.88 1.88 0 0 1 1.52-.7 1.61 1.61 0 0 1 1.46.85 2.14 2.14 0 0 1 .57-.52 1.84 1.84 0 0 1 1.1-.33c.9 0 1.86.62 1.86 2.37zm-1.27-.25h1v-2.92c0-1.33-.6-2.12-1.61-2.12a1.54 1.54 0 0 0-1 .29 1.78 1.78 0 0 0-.61.61v.06h-.15v-.08a1.37 1.37 0 0 0-1.32-.88 1.68 1.68 0 0 0-1.49.83v.05H646v-.76h-1V207h1v-3a1.32 1.32 0 0 1 .08-.47 1.13 1.13 0 0 1 1.05-.82c.64 0 1 .5 1 1.35V207h1v-3a2.23 2.23 0 0 1 .07-.47 1.12 1.12 0 0 1 1-.78c.39 0 1 .19 1 1.49z" transform="translate(-627.14 -176.8)"/></svg>