<svg id="Слой_1" data-name="Слой 1" xmlns="http://www.w3.org/2000/svg" viewBox="0 0 47.21 46.73"><defs><style>.cls-1{fill:#97c340}</style></defs><path class="cls-1" d="M982.2 538.42a3.82 3.82 0 0 0 .37-4.72 7.49 7.49 0 0 0-5-3.35c-.16 0-.33 0-.5-.06.22-.18.42-.37.62-.55a5.43 5.43 0 0 0 2-4.22 5.61 5.61 0 0 0-2.06-3.78c-3.3-2.23-7 .47-7.15.59l-.14.13a2 2 0 0 0-.17.23 6.58 6.58 0 0 0-3-4.39 5.32 5.32 0 0 0-5.63-.66 6 6 0 0 0-1 .67 4.32 4.32 0 0 0-2.66 0 3.24 3.24 0 0 0-2.18 2.82 3.66 3.66 0 0 0 1.82 3.49 10.44 10.44 0 0 1 3.73 4 5.21 5.21 0 0 0-2.15.28c-4.06 1.46-20.14 25-23 32.66a1.62 1.62 0 0 0 .33 1.76 1.52 1.52 0 0 0 1.11.45 1.91 1.91 0 0 0 .65-.12c7.7-2.87 31.35-18.87 32.79-22.87a5 5 0 0 0 .29-1.71 10.51 10.51 0 0 1 4 2.95 4.7 4.7 0 0 0 3.72 2 3.5 3.5 0 0 0 2.88-1.49 3.64 3.64 0 0 0 .1-3.86 2.31 2.31 0 0 0 .2-.24zm-.92-3.78a2.19 2.19 0 0 1-.24 2.68l-.11-.12-.17-.19-.46-.49a1.85 1.85 0 0 0-.14-.14 11 11 0 0 0-7.95-3.23 14.76 14.76 0 0 0-2.63.25l.27-.12.38-.16.42-.18.37-.13c.21-.09.44-.17.67-.25l.43-.14.43-.12.47-.12.47-.12.67-.12.36-.05a9.17 9.17 0 0 1 2.77 0 5.94 5.94 0 0 1 4 2.72zm-9.8-11.11c.47-.32 3-1.95 5.2-.51a4 4 0 0 1 1.42 2.58 3.9 3.9 0 0 1-1.5 3 16.27 16.27 0 0 1-2.23 1.72l-.32.05c-.22 0-.45.06-.66.11l-.46.1-.52.12-.48.13-.47.15-.49.15-.42.16-.49.18-.32.13c-.7.29-1.34.59-1.92.89a24 24 0 0 0 1.44-3.15l.09-.21.21-.63c0-.12.08-.23.11-.35s.12-.4.18-.61l.09-.38c.05-.21.09-.41.14-.61s.05-.27.07-.4.06-.4.08-.61a1.52 1.52 0 0 0 0-.21 16.45 16.45 0 0 1 1.25-1.79zm-9.21-4.5a3.72 3.72 0 0 1 3.89.5l.09.07a4.9 4.9 0 0 1 2.32 3.39 7.35 7.35 0 0 1 .09 1.94v.07a14.73 14.73 0 0 1-.92 3.77 11.68 11.68 0 0 0-.14-2.35v-.08c0-.08-.06-.34-.1-.51s0-.21-.08-.32a2.5 2.5 0 0 0-.07-.26c0-.14-.08-.29-.13-.43a.56.56 0 0 1 0-.12 9.53 9.53 0 0 0-1.94-3.23l-.07-.09-.41-.42-.22-.2-.34-.31c-.22-.19-.44-.37-.68-.55-.06-.06-.2-.17-.41-.33a9.08 9.08 0 0 0-.79-.52zm-3.94 4.2a2.07 2.07 0 0 1-1-2 1.66 1.66 0 0 1 1.11-1.46 2.2 2.2 0 0 1 .79-.14 3.57 3.57 0 0 1 1.25.25l.4.17.18.09.31.17a.6.6 0 0 1 .11.06 7.06 7.06 0 0 1 .92.65h.11a11.24 11.24 0 0 1 1 .81c.09.08.15.17.23.25s.41.42.59.64l.21.29c.16.22.32.45.46.68l.15.28a6.65 6.65 0 0 1 .41.85.78.78 0 0 1 .05.14 9.65 9.65 0 0 1 .38 5.1 16 16 0 0 1-1 3.43c-.13-.48-.28-.94-.42-1.39 0-.07 0-.14-.08-.22-.13-.4-.27-.79-.42-1.16a1.59 1.59 0 0 0-.07-.2c-1.72-4.35-3.91-6.44-5.65-7.44zm11.16 17c-.43 1.2-3.44 3.81-7.49 6.84a1.29 1.29 0 0 0-.21-.06 5.71 5.71 0 0 1-3.84-2 .8.8 0 0 0-1.11-.19.79.79 0 0 0-.19 1.11 6.71 6.71 0 0 0 3.65 2.41 215.78 215.78 0 0 1-8.2 5.62.76.76 0 0 0-.43-.21 3.54 3.54 0 0 1-2.4-1.24.8.8 0 0 0-1.11-.19.81.81 0 0 0-.2 1.12 4.75 4.75 0 0 0 2.39 1.64c-5.18 3.3-10.07 6.09-12.7 7.07v-.05a47.63 47.63 0 0 1 3.36-6.67l.08.08a11.24 11.24 0 0 0 1.82 1.09.77.77 0 0 0 .34.08.8.8 0 0 0 .34-1.52 9.15 9.15 0 0 1-1.55-.94 1.23 1.23 0 0 0-.26-.12c1.88-3.12 4.13-6.56 6.4-9.84a4.61 4.61 0 0 0 1.56 2.13.78.78 0 0 0 .46.14.76.76 0 0 0 .65-.34.78.78 0 0 0-.19-1.11 3.55 3.55 0 0 1-1.24-2.39.5.5 0 0 0 0-.13c1.77-2.49 3.51-4.82 5.07-6.76a6.76 6.76 0 0 0 2.4 3.65.79.79 0 0 0 .46.15.81.81 0 0 0 .66-.34.8.8 0 0 0-.19-1.11 5.67 5.67 0 0 1-2-3.84.32.32 0 0 0 0-.09c1.8-2.15 3.23-3.58 3.94-3.83a3.6 3.6 0 0 1 1.22-.21 4.79 4.79 0 0 1 1.26.18 25.74 25.74 0 0 1 1 2.58 1.21 1.21 0 0 1 0 .18c.13.39.24.79.35 1.2a2.76 2.76 0 0 0 .08.27c.12.49.24 1 .35 1.5a1 1 0 0 1 0 .1.63.63 0 0 0 0 .09.43.43 0 0 0 0 .07v.07a.24.24 0 0 0 .08.06h.19a.09.09 0 0 0 .07 0l1.34.37.29.08 1 .3.24.08 1 .34.17.06c.37.13.73.27 1.07.41a3.74 3.74 0 0 1-.17 1.89zm11.09 1.34a1.89 1.89 0 0 1-1.58.8 3.08 3.08 0 0 1-2.42-1.3 13.71 13.71 0 0 0-5.88-4h-.1c-.24-.1-.49-.2-.75-.29l-.67-.25-.71-.25-1-.34-.38-.12.2-.08h.07c2.5-.91 6.77-1.79 10.47.78.2.14.38.29.57.44s.18.14.27.21a11.89 11.89 0 0 1 1.65 1.78l.1.13a2.24 2.24 0 0 1 .23 2.58zm0 0" transform="translate(-936 -517.06)"/><path class="cls-1" d="M968.3 540a11.41 11.41 0 0 1-4.51-3.33.8.8 0 0 0-1.13-.09.81.81 0 0 0-.09 1.13 12.89 12.89 0 0 0 5.16 3.79 1 1 0 0 0 .29 0 .8.8 0 0 0 .28-1.55zm0 0" transform="translate(-936 -517.06)"/></svg>